<svg width="491" height="415" viewBox="0 0 491 415" fill="none" xmlns="http://www.w3.org/2000/svg">
<mask id="mask0" mask-type="alpha" maskUnits="userSpaceOnUse" x="0" y="0" width="491" height="415">
<rect width="491" height="415" fill="#C4C4C4"/>
</mask>
<g mask="url(#mask0)">
<path d="M212.447 23.0515C128.575 -34.219 -4.87915 30.6873 4.44691 167.234C20.3492 400.052 182.583 427.096 324.446 400.052C510.082 364.664 552.912 152.297 381.501 167.234C243.941 179.221 317.287 94.6395 212.447 23.0515Z" fill="#FCDDD4"/>
<mask id="mask1" mask-type="alpha" maskUnits="userSpaceOnUse" x="-53" y="-29" width="584" height="501">
<path d="M212.446 23.0516C128.574 -34.2188 -4.88013 30.6874 4.44594 167.234C20.3483 400.052 182.582 427.096 324.445 400.052C510.081 364.664 552.911 152.298 381.5 167.234C243.94 179.221 317.286 94.6396 212.446 23.0516Z" fill="#FCDDD4"/>
</mask>
<g mask="url(#mask1)">
<path opacity="0.7" d="M-20.4813 38.1379C7.14966 26.0064 72.3266 8.52462 111.987 35.6494C161.562 69.5555 8.19777 113.389 55.3943 139.186C102.591 164.983 190.783 56.5911 224.87 75.2225C258.956 93.8539 138.138 143.561 173.292 169.585C208.446 195.608 311.546 81.7477 354.215 103.368C396.884 124.988 252.21 187.189 320.383 224.452" stroke="url(#paint0_linear)" stroke-width="2"/>
<path d="M149.447 427.051C149.447 399.437 171.833 377.051 199.447 377.051L466.447 377.051L466.447 487.051L149.447 487.051L149.447 427.051Z" fill="#F58A6B"/>
</g>
<path fill-rule="evenodd" clip-rule="evenodd" d="M36.8143 181.676C38.4511 183.023 39.7308 184.466 40.7406 185.854L43.3721 182.343C42.1242 181.019 40.9083 179.814 39.4543 178.673L36.8143 181.676Z" fill="#3E1A0B"/>
<path fill-rule="evenodd" clip-rule="evenodd" d="M45.3473 187.808C43.8678 185.143 40.5644 184.243 37.9307 185.841L34.4404 188.052C31.8067 189.651 30.9693 193.192 32.3298 195.889C33.8094 198.554 37.1128 199.454 39.7465 197.856L43.2368 195.645C45.8705 194.046 46.8588 190.592 45.3473 187.808Z" fill="#F69E9F"/>
<path fill-rule="evenodd" clip-rule="evenodd" d="M186.546 76.245L124.718 86.4338L121.425 66.5241C121.097 64.826 119.492 63.5978 117.643 63.8382L68.6332 71.868C66.9348 72.1955 65.7062 73.8003 65.9464 75.6493L69.2399 95.559L10.9598 105.18C9.49946 105.444 8.35801 106.897 8.62165 108.358L48.5129 351.512C48.7765 352.972 50.2305 354.113 51.6909 353.849L227.309 325.033C228.769 324.77 229.911 323.316 229.647 321.856L189.637 78.7334C189.58 77.0905 188.038 76.1003 186.546 76.245Z" fill="url(#paint1_linear)"/>
<path fill-rule="evenodd" clip-rule="evenodd" d="M177.966 107.048L23.6346 132.456C22.2933 132.688 21.358 133.959 21.5898 135.3L56.1485 345.697C56.3803 347.038 57.6515 347.973 58.9928 347.741L213.324 322.333C214.666 322.101 215.601 320.83 215.369 319.489L180.81 109.092C180.579 107.751 179.307 106.816 177.966 107.048Z" fill="#F36F49"/>
<path fill-rule="evenodd" clip-rule="evenodd" d="M177.491 99.5909L26.9134 124.248C25.5721 124.48 24.7559 125.719 24.9876 127.06L58.7151 332.45C58.9468 333.791 60.1861 334.607 61.5274 334.376L212.192 309.567C213.533 309.335 214.35 308.096 214.118 306.755L180.391 101.365C180.072 100.175 178.832 99.3591 177.491 99.5909Z" fill="#FAFBFC"/>
<path opacity="0.8" d="M171.961 108.472L34.9792 131.017C34.2331 131.089 33.5827 131.518 33.2341 132.122C32.8855 132.726 32.6878 133.416 32.7601 134.162L63.8893 323.666C63.9616 324.412 64.3911 325.062 64.9948 325.411C65.5985 325.759 66.2893 325.957 67.0355 325.884L204.049 303.458C204.795 303.386 205.446 302.956 205.794 302.353C206.143 301.749 206.34 301.058 206.268 300.312L175.107 110.69C175.035 109.944 174.605 109.294 174.002 108.945C173.398 108.597 172.707 108.399 171.961 108.472ZM205.165 300.48C205.292 300.957 205.15 301.377 204.857 301.711C204.563 302.045 204.238 302.26 203.762 302.387L66.8994 324.9C66.4232 325.028 66.0023 324.885 65.6686 324.592C65.3348 324.299 65.1201 323.974 64.9926 323.498L33.8314 133.875C33.7039 133.399 33.8463 132.978 34.1396 132.645C34.433 132.311 34.7582 132.096 35.2343 131.969L172.216 109.424C172.692 109.296 173.113 109.438 173.447 109.732C173.781 110.025 173.995 110.35 174.123 110.826L205.165 300.48Z" fill="#F58A6B"/>
<path fill-rule="evenodd" clip-rule="evenodd" d="M93.9187 73.3842C90.998 73.9117 89.0403 76.6047 89.5676 79.5249C90.0949 82.445 92.7882 84.4021 95.7089 83.8746C98.6296 83.3471 100.587 80.654 100.06 77.7339C99.5646 74.9328 96.8394 72.8567 93.9187 73.3842Z" fill="#FAFBFC"/>
<path fill-rule="evenodd" clip-rule="evenodd" d="M135.041 81.627L58.0379 94.2237C56.3395 94.5512 55.1109 96.156 55.3511 98.005L58.9401 119.494C59.2675 121.192 60.8725 122.42 62.7218 122.18L139.725 109.583C141.423 109.256 142.652 107.651 142.412 105.802L138.91 84.162C138.463 82.4958 136.739 81.2995 135.041 81.627Z" fill="#F58A6B"/>
<path opacity="0.8" fill-rule="evenodd" clip-rule="evenodd" d="M93.5986 91.7113L64.264 96.51C62.9227 96.7418 61.9875 98.0129 62.2192 99.354L65.0087 115.955C65.2405 117.296 66.5117 118.231 67.853 117.999L97.1875 113.2C98.5288 112.968 99.4641 111.697 99.2324 110.356L96.4428 93.7555C96.2111 92.4144 94.9399 91.4794 93.5986 91.7113Z" fill="#F36F49"/>
<path opacity="0.2" d="M89.508 146.02L89.8477 148.086L170.471 134.833L170.131 132.767L89.508 146.02Z" fill="#EE4D47"/>
<path opacity="0.2" d="M90.3576 151.251L90.6973 153.318L171.32 140.064L170.981 137.998L90.3576 151.251Z" fill="#EE4D47"/>
<path opacity="0.2" d="M131.418 149.704L131.758 151.771L172.13 145.134L171.79 143.067L131.418 149.704Z" fill="#EE4D47"/>
<path opacity="0.2" d="M91.2043 156.342L91.5439 158.409L129.363 152.192L129.023 150.125L91.2043 156.342Z" fill="#EE4D47"/>
<path opacity="0.2" d="M95.0685 180.205L95.4082 182.272L176.031 169.019L175.692 166.952L95.0685 180.205Z" fill="#EE4D47"/>
<path opacity="0.2" d="M95.9181 185.437L96.2578 187.504L176.881 174.25L176.541 172.183L95.9181 185.437Z" fill="#EE4D47"/>
<path opacity="0.2" d="M137.103 183.87L137.442 185.937L177.815 179.3L177.475 177.233L137.103 183.87Z" fill="#EE4D47"/>
<path opacity="0.2" d="M96.7668 190.528L97.1064 192.594L134.925 186.378L134.585 184.311L96.7668 190.528Z" fill="#EE4D47"/>
<path opacity="0.2" d="M100.125 210.865L100.465 212.932L181.088 199.678L180.748 197.612L100.125 210.865Z" fill="#EE4D47"/>
<path opacity="0.2" d="M100.975 216.096L101.314 218.163L181.937 204.91L181.598 202.843L100.975 216.096Z" fill="#EE4D47"/>
<path opacity="0.2" d="M142.158 214.529L142.498 216.596L182.87 209.959L182.531 207.893L142.158 214.529Z" fill="#EE4D47"/>
<path opacity="0.2" d="M101.821 221.188L102.161 223.255L139.98 217.038L139.64 214.971L101.821 221.188Z" fill="#EE4D47"/>
<path opacity="0.2" d="M105.295 242.445L105.635 244.512L186.258 231.259L185.918 229.192L105.295 242.445Z" fill="#EE4D47"/>
<path opacity="0.2" d="M106.166 247.798L106.506 249.865L187.129 236.612L186.789 234.545L106.166 247.798Z" fill="#EE4D47"/>
<path opacity="0.2" d="M147.348 246.231L147.688 248.298L188.06 241.662L187.72 239.595L147.348 246.231Z" fill="#EE4D47"/>
<path opacity="0.2" d="M107.012 252.89L107.352 254.957L145.17 248.74L144.831 246.673L107.012 252.89Z" fill="#EE4D47"/>
<path opacity="0.2" d="M110.386 273.822L110.726 275.889L191.349 262.636L191.009 260.569L110.386 273.822Z" fill="#EE4D47"/>
<path opacity="0.2" d="M111.236 279.054L111.575 281.121L192.198 267.867L191.858 265.8L111.236 279.054Z" fill="#EE4D47"/>
<path opacity="0.2" d="M152.419 277.486L152.759 279.553L193.131 272.917L192.791 270.85L152.419 277.486Z" fill="#EE4D47"/>
<path opacity="0.2" d="M112.205 284.126L112.545 286.192L150.364 279.976L150.024 277.909L112.205 284.126Z" fill="#EE4D47"/>
<path opacity="0.2" d="M51.4678 146.37L50.4836 146.506L50.6197 147.49L53.6495 165.94L53.7856 166.924L54.7698 166.788L74.5642 163.525L75.5484 163.388L75.4123 162.404L72.3825 143.955L72.2464 142.971L71.2622 143.107L51.4678 146.37ZM73.3397 161.812L55.3628 164.715L52.5732 148.115L70.4312 145.243L73.3397 161.812Z" fill="#EE4D47"/>
<path opacity="0.2" d="M57.1046 181.214L56.1204 181.35L56.3755 182.302L59.4053 200.752L59.5414 201.736L60.5256 201.6L80.32 198.337L81.3042 198.201L81.1682 197.217L78.1384 178.767L78.0023 177.783L77.0181 177.919L57.1046 181.214ZM78.9765 196.656L61.1186 199.527L58.3291 182.927L76.187 180.055L78.9765 196.656Z" fill="#EE4D47"/>
<path opacity="0.2" d="M62.5967 214.566L61.6125 214.702L61.7486 215.686L64.7784 234.136L64.9145 235.12L65.8987 234.984L85.6931 231.721L86.6773 231.584L86.5412 230.6L83.5114 212.151L83.3753 211.167L82.3911 211.303L62.5967 214.566ZM84.4686 230.008L66.6107 232.879L63.8212 216.279L81.6791 213.407L84.4686 230.008Z" fill="#EE4D47"/>
<path opacity="0.2" d="M68.1524 248.156L67.1682 248.292L67.3043 249.276L70.3659 267.845L70.502 268.829L71.4862 268.693L91.2807 265.43L92.2648 265.294L92.1288 264.31L89.099 245.86L88.9629 244.876L87.9787 245.012L68.1524 248.156ZM90.0243 263.598L72.1664 266.47L69.3768 249.869L87.2348 246.998L90.0243 263.598Z" fill="#EE4D47"/>
<path opacity="0.2" d="M73.5088 280.524L72.5246 280.661L72.6607 281.645L75.6905 300.094L75.8266 301.078L76.8108 300.942L96.6052 297.679L97.5894 297.543L97.4533 296.559L94.4236 278.109L94.2875 277.125L93.3033 277.261L73.5088 280.524ZM95.3489 295.847L77.4909 298.719L74.7014 282.118L92.5593 279.247L95.3489 295.847Z" fill="#EE4D47"/>
<path d="M63.7828 155.188L53.4559 149.026L52.2911 150.869L63.6425 157.522L64.5481 158.045L65.071 157.139L79.0403 134.517L77.2292 133.472L63.7828 155.188Z" fill="#EE4D47"/>
<path d="M69.675 190.984L59.3481 184.822L58.1833 186.665L69.5348 193.318L70.4085 193.722L70.9632 192.935L84.9007 170.194L83.0895 169.149L69.675 190.984Z" fill="#F58A6B"/>
<path d="M80.9543 259.268L70.5084 253.138L69.4626 254.949L80.6951 261.634L81.6006 262.156L82.1235 261.251L96.2119 238.597L94.3688 237.433L80.9543 259.268Z" fill="#F58A6B"/>
<path fill-rule="evenodd" clip-rule="evenodd" d="M51.553 365.239C50.4817 365.526 49.8717 366.582 50.1587 367.653C50.4457 368.725 51.5022 369.334 52.5735 369.047C53.6449 368.76 54.2549 367.704 53.9679 366.633C53.6809 365.562 52.6244 364.952 51.553 365.239Z" fill="#FAFBFC"/>
<path d="M80.943 356.838C81.688 356.504 82.0206 355.629 81.6859 354.884C81.3512 354.139 80.4759 353.806 79.7309 354.141C78.9858 354.476 78.6532 355.351 78.9879 356.096C79.3226 356.841 80.1979 357.173 80.943 356.838Z" fill="#FAFBFC"/>
<path d="M121.727 344.777C122.319 344.618 122.67 344.01 122.512 343.419C122.353 342.827 121.745 342.476 121.153 342.635C120.562 342.793 120.211 343.401 120.369 343.993C120.528 344.585 121.136 344.936 121.727 344.777Z" fill="#FAFBFC"/>
<path fill-rule="evenodd" clip-rule="evenodd" d="M142.942 340.623C141.99 340.879 141.467 341.784 141.722 342.736C141.977 343.688 142.883 344.211 143.835 343.956C144.787 343.701 145.31 342.795 145.055 341.843C144.832 341.01 143.894 340.368 142.942 340.623Z" fill="#FAFBFC"/>
<path fill-rule="evenodd" clip-rule="evenodd" d="M175.195 333.384C174.838 333.48 174.663 333.782 174.759 334.139C174.855 334.496 175.157 334.67 175.514 334.575C175.871 334.479 176.045 334.177 175.949 333.82C175.973 333.431 175.552 333.289 175.195 333.384Z" fill="#FAFBFC"/>
<path fill-rule="evenodd" clip-rule="evenodd" d="M241.82 311.578C241.225 311.737 240.996 312.309 241.123 312.785C241.283 313.38 241.855 313.61 242.331 313.482C242.926 313.323 243.155 312.751 243.028 312.275C243.019 311.767 242.416 311.418 241.82 311.578Z" fill="#FAFBFC"/>
<path d="M352.926 120.052C352.926 109.006 343.971 100.052 332.926 100.052H257.446C246.401 100.052 237.446 109.006 237.446 120.052V130.454C237.446 141.5 246.401 150.454 257.446 150.454H352.926V120.052Z" fill="white"/>
<circle r="3.82804" transform="matrix(-1 0 0 1 326.768 125.572)" fill="#F4A984"/>
<circle r="3.82804" transform="matrix(-1 0 0 1 310.816 125.572)" fill="#F4A984"/>
<circle r="3.82804" transform="matrix(-1 0 0 1 294.866 125.572)" fill="#F4A984"/>
<circle r="3.82804" transform="matrix(-1 0 0 1 278.916 125.572)" fill="#F4A984"/>
<circle r="3.82804" transform="matrix(-1 0 0 1 262.966 125.572)" fill="#F4A984"/>
<path d="M203.447 287.552C159.847 287.552 181.947 224.552 198.447 193.051C207.281 186.385 228.947 172.952 244.947 172.552C260.947 172.152 270.947 192.052 273.947 202.052C272.114 202.218 270.247 209.852 277.447 239.052C284.647 268.252 281.114 283.552 278.447 287.552H203.447Z" fill="#402B2B"/>
<path d="M249.047 272.592C244.934 265.403 248.019 254.277 248.019 254.277L235.338 256.845L222.658 254.277C222.658 254.277 224.2 259.583 223.686 265.403C228.142 270.538 238.423 280.124 249.047 272.592Z" fill="url(#paint2_linear)"/>
<path d="M247.245 258.285C244.47 259.957 240.962 261.504 237.037 262.691C232.113 264.18 227.422 264.831 223.739 264.691C224.077 259.158 222.658 254.277 222.658 254.277L235.338 256.845L248.019 254.277C248.019 254.277 247.571 255.89 247.245 258.285Z" fill="url(#paint3_linear)" style="mix-blend-mode:multiply"/>
<path d="M204.323 282.691C211.691 289.196 226.257 303.403 235.51 303.403C244.763 303.403 261.213 289.88 268.581 283.376C264.983 282.007 254.016 277.727 251.446 275.502C250.589 274.646 249.732 273.619 249.218 272.592C238.594 280.124 228.313 270.538 223.858 265.232C223.515 268.998 222.487 272.763 219.574 275.331C216.661 277.727 207.75 281.322 204.323 282.691Z" fill="url(#paint4_linear)"/>
<path d="M270.223 215.422C269.024 213.197 267.139 212.854 265.939 213.197C265.939 213.197 262.512 202.242 260.113 194.197C252.06 190.431 244.52 187.179 235.438 186.494V186.323C234.067 186.323 231.669 186.323 230.298 186.323C224.643 186.494 218.988 186.665 213.505 187.692C212.134 188.035 210.763 188.377 209.392 188.377C207.679 197.449 204.766 213.368 203.566 213.197H203.395C203.224 213.197 203.224 213.197 203.052 213.025C201.853 212.683 200.482 213.025 199.283 215.079C197.226 218.845 199.283 226.377 202.024 228.602C203.395 229.629 204.595 230.485 205.451 230.998C206.822 237.845 209.221 244.349 212.82 248.286C222.244 258.385 230.983 260.611 233.382 260.953C233.553 260.953 233.896 260.953 234.067 260.953C234.067 260.953 234.239 260.953 234.41 260.953C236.124 260.782 245.548 259.07 255.658 248.115C259.257 244.349 261.827 241.611 263.369 231.512C264.397 230.998 265.425 230.142 267.139 228.773C270.223 226.719 272.279 219.188 270.223 215.422Z" fill="url(#paint5_linear)"/>
<path d="M235.184 225.052C235.184 225.052 235.315 228.908 234.272 230.177C233.229 231.446 231.251 232.674 231.087 233.623C230.896 234.391 231.725 235.739 233.17 236.07C234.615 236.4 234.85 236.918 234.85 236.918C234.85 236.918 232.182 237.699 230.514 235.926C228.846 234.154 230.108 232.297 231.33 231.185C232.552 230.073 233.102 229.619 233.623 228.985C234.296 228.327 235.184 225.052 235.184 225.052Z" fill="#D87C60"/>
<path d="M245.513 242.052H224.812C224.136 242.052 223.66 242.707 223.931 243.326C225.39 246.661 228.972 251.552 234.947 251.552C240.899 251.552 244.731 246.7 246.377 243.367C246.685 242.743 246.209 242.052 245.513 242.052Z" fill="#D87C60"/>
<path fill-rule="evenodd" clip-rule="evenodd" d="M245.423 245.052H224.814C224.463 244.454 224.169 243.869 223.931 243.326C223.66 242.707 224.136 242.052 224.812 242.052H245.513C246.209 242.052 246.685 242.743 246.377 243.367C246.114 243.898 245.796 244.469 245.423 245.052Z" fill="white"/>
<path d="M255.045 173.999C280.577 177.251 274.579 208.404 269.61 213.881L265.947 220.052C264.114 216.885 260.347 208.152 259.947 198.552C256.114 201.052 244.647 206.052 229.447 206.052C210.447 206.052 205.24 209.197 203.447 218.052C198.992 208.124 195.928 188.035 206.894 176.738C221.974 160.99 244.764 157.224 255.045 173.999Z" fill="#402B2B"/>
<path d="M203.466 217.989L204.323 225.35C204.323 225.35 201.752 223.98 201.238 220.557C201.067 218.503 201.924 217.134 203.466 217.989Z" fill="#ED8A40"/>
<path d="M265.666 217.989L264.81 225.35C264.81 225.35 267.38 223.98 267.894 220.557C268.065 218.503 267.38 217.134 265.666 217.989Z" fill="#ED8A40"/>
<path d="M252.133 226.312C252.133 227.853 250.933 229.222 249.22 229.222C247.677 229.222 246.307 228.024 246.307 226.312C246.307 224.772 247.506 223.402 249.22 223.402C250.933 223.402 252.133 224.772 252.133 226.312Z" fill="#402B2B"/>
<path d="M221.631 229.222C223.24 229.222 224.544 227.919 224.544 226.312C224.544 224.705 223.24 223.402 221.631 223.402C220.022 223.402 218.718 224.705 218.718 226.312C218.718 227.919 220.022 229.222 221.631 229.222Z" fill="#402B2B"/>
<path d="M213.988 220.912C215.237 219.55 218.893 216.825 223.526 216.825" stroke="#402B2B" stroke-width="2"/>
<path d="M247.028 216.942C248.874 216.862 253.386 217.52 256.662 220.796" stroke="#402B2B" stroke-width="2"/>
<path d="M296.512 321.547C297.198 303.061 291.543 292.106 282.975 287.484C274.408 282.863 254.188 277.043 253.502 276.872L235.168 291.421L217.689 276.872C217.004 277.043 196.27 282.863 187.874 287.484C179.306 292.106 173.651 303.061 174.337 321.547C174.851 336.439 173.823 359.889 173.994 377.006H297.026C297.026 359.889 295.998 336.439 296.512 321.547Z" fill="url(#paint6_linear)"/>
<path d="M245.277 283.205L240.479 280.98L234.996 291.079L229.512 280.98L224.543 283.205L231.74 294.845V377.006H238.423V294.331L245.277 283.205Z" fill="#EE4D47" fill-opacity="0.29" style="mix-blend-mode:multiply"/>
<path d="M223.687 265.232C223.515 270.196 230.541 283.034 230.541 283.034L218.375 294.844L214.434 277.728C214.434 277.728 218.375 267.286 223.687 265.232Z" fill="white"/>
<path d="M246.99 265.232C247.162 270.196 239.279 283.205 239.279 283.205L252.131 294.844L256.072 277.556C256.072 277.556 252.302 267.286 246.99 265.232Z" fill="white"/>
<path d="M237.054 297.754C237.054 298.781 236.197 299.637 235.169 299.637C234.141 299.637 233.284 298.781 233.284 297.754C233.284 296.727 234.141 295.872 235.169 295.872C236.197 295.872 237.054 296.727 237.054 297.754Z" fill="white"/>
<path d="M237.053 315.214C237.053 316.241 236.196 317.097 235.168 317.097C234.14 317.097 233.283 316.241 233.283 315.214C233.283 314.187 234.14 313.331 235.168 313.331C236.196 313.331 237.053 314.015 237.053 315.214Z" fill="white"/>
<path d="M237.053 332.331C237.053 333.358 236.196 334.213 235.168 334.213C234.14 334.213 233.283 333.358 233.283 332.331C233.283 331.304 234.14 330.448 235.168 330.448C236.196 330.448 237.053 331.304 237.053 332.331Z" fill="white"/>
<path d="M237.053 351.33C237.053 352.358 236.196 353.213 235.168 353.213C234.14 353.213 233.283 352.358 233.283 351.33C233.283 350.303 234.14 349.448 235.168 349.448C236.196 349.448 237.053 350.303 237.053 351.33Z" fill="white"/>
<path d="M177.078 292.619C177.078 292.619 158.915 341.403 157.544 349.448C156.344 357.493 166.626 376.15 171.424 376.835C178.449 377.862 184.104 375.808 191.129 363.826C197.983 351.844 196.784 300.664 196.784 300.664L177.078 292.619Z" fill="url(#paint7_linear)"/>
<path d="M196.955 295.872C196.955 295.872 195.756 354.754 193.185 362.114C189.073 373.925 178.62 377.177 178.62 377.177H190.272C190.272 377.177 199.354 371.186 200.211 353.213C200.725 342.43 198.84 308.025 197.812 296.556C197.469 293.475 196.955 295.872 196.955 295.872Z" fill="#EE4D47" fill-opacity="0.29" style="mix-blend-mode:multiply"/>
<path d="M200.982 290.315L181.281 282.364L177.173 292.521L196.874 300.472L200.982 290.315Z" fill="white"/>
<path d="M275.436 304.259C275.436 304.259 268.41 337.637 267.896 351.331C267.382 365.024 267.896 376.835 267.896 376.835L272.866 377.177C272.866 377.177 274.065 317.268 275.436 304.259Z" fill="#EE4D47" fill-opacity="0.29" style="mix-blend-mode:multiply"/>
<path d="M215.803 258.043C206.379 258.043 203.294 253.422 201.409 246.404C200.553 242.638 200.21 232.539 200.21 232.197H202.952C202.952 232.368 203.294 242.467 204.151 245.89C205.865 252.566 208.435 255.989 217.688 255.304L217.859 258.043C217.174 258.043 216.489 258.043 215.803 258.043Z" fill="white"/>
<path d="M235.167 164.927C227.628 164.242 210.321 164.756 202.438 179.819C202.438 179.819 204.495 183.413 206.894 181.017C215.461 173.314 227.456 173.143 234.824 173.143C242.364 173.143 254.873 173.143 263.269 181.017C265.839 183.242 267.724 179.819 267.724 179.819C260.013 164.756 242.707 164.242 235.167 164.927Z" fill="white"/>
<path d="M275.778 216.62C275.778 216.62 275.435 206.179 275.264 203.269C274.921 197.62 274.064 188.377 272.179 183.413C266.01 166.467 245.962 163.215 235.509 163.215C224.885 163.215 204.494 166.467 198.326 183.242C196.612 188.035 195.755 196.593 195.241 202.413C195.07 205.836 194.898 216.449 194.898 216.449H197.811C197.811 216.449 197.811 205.836 198.154 202.413C198.497 197.962 199.354 191.458 201.581 185.296C206.722 170.747 225.742 169.206 234.995 169.206C244.42 169.206 263.783 170.747 268.923 185.296C271.322 192.143 272.179 199.161 272.522 203.611C272.693 206.521 272.865 216.62 272.865 216.62H275.778V216.62Z" fill="url(#paint8_linear)"/>
<path d="M198.497 214.566H194.728V230.656H198.497V214.566Z" fill="white"/>
<path d="M205.181 233.737H200.897C198.84 233.737 197.127 232.025 197.127 229.971V215.251C197.127 213.197 198.84 211.485 200.897 211.485H205.181C205.695 211.485 206.037 211.827 206.037 212.341V232.71C206.037 233.223 205.695 233.737 205.181 233.737Z" fill="url(#paint9_linear)"/>
<path d="M193.185 232.025H193.014C192.157 232.025 191.472 231.341 191.472 230.485V214.395C191.472 213.539 192.157 212.854 193.014 212.854H193.185C194.042 212.854 194.727 213.539 194.727 214.395V230.485C194.727 231.341 194.042 232.025 193.185 232.025Z" fill="url(#paint10_linear)"/>
<path d="M271.625 230.934H275.395V214.844H271.625V230.934Z" fill="white"/>
<path d="M265.154 234.079H269.438C271.494 234.079 273.208 232.367 273.208 230.313V215.593C273.208 213.539 271.494 211.827 269.438 211.827H265.154C264.64 211.827 264.297 212.169 264.297 212.683V233.052C264.126 233.566 264.64 234.079 265.154 234.079Z" fill="url(#paint11_linear)"/>
<path d="M276.978 232.368H277.149C278.006 232.368 278.691 231.683 278.691 230.827V214.737C278.691 213.881 278.006 213.197 277.149 213.197H276.978C276.121 213.197 275.436 213.881 275.436 214.737V230.827C275.436 231.683 276.121 232.368 276.978 232.368Z" fill="url(#paint12_linear)"/>
<path d="M225.914 256.331C225.914 258.043 223.858 259.584 221.116 259.584C218.546 259.584 216.318 258.214 216.318 256.331C216.318 254.448 218.375 253.079 221.116 253.079C223.687 253.079 225.914 254.448 225.914 256.331Z" fill="url(#paint13_linear)"/>
<path fill-rule="evenodd" clip-rule="evenodd" d="M190.102 245.377L190.102 245.376C191.696 243.884 193.522 242.854 195.275 241.985C198.428 239.945 202.104 237.625 203.467 236.989C206.209 235.62 207.923 238.016 203.981 241.44C203.126 242.183 202.134 242.974 201.104 243.758C203.244 242.938 205.138 242.234 206.037 241.953C208.95 241.098 210.321 243.836 205.694 246.404C203.813 247.448 201.449 248.577 199.307 249.55L200.041 251.881C200.041 251.881 202.097 249.998 202.782 249.485C207.066 246.575 209.294 248.971 207.409 251.539C205.353 254.106 202.268 261.467 203.296 266.602C203.982 270.025 203.468 274.818 202.611 278.584C201.754 282.178 196.442 292.791 196.442 292.791L182.734 287.998C182.734 287.998 185.818 284.746 185.304 276.872C185.152 274.291 184.124 271.576 183.101 268.875C181.818 265.485 180.543 262.119 181.02 259.07C181.877 254.278 188.902 246.576 190.102 245.377L190.102 245.377Z" fill="url(#paint14_linear)"/>
<path opacity="0.3" d="M202.439 265.917C202.782 261.638 202.439 260.782 202.096 258.728C201.754 256.331 202.268 253.25 201.24 251.025C200.04 248.629 198.155 247.26 194.9 247.944C190.616 248.971 188.902 251.196 188.902 251.196C188.902 251.196 192.329 249.827 194.043 249.314C196.613 248.629 199.183 248.8 200.212 251.881C200.726 253.764 201.068 256.331 201.411 258.214C201.582 259.584 202.61 265.575 201.754 265.746C200.897 265.746 199.012 265.232 198.155 262.151C197.984 262.836 197.813 267.458 197.298 267.458C194.214 267.115 193.871 264.719 193.7 262.151C193.7 260.953 193.529 259.241 193.186 257.016C191.987 258.899 189.074 260.611 187.874 261.467C189.245 262.665 191.815 265.575 192.843 266.773C194.728 268.998 196.442 272.421 196.784 276.016C201.411 271.566 198.841 266.944 198.669 265.403C199.869 266.773 202.268 267.8 202.439 265.917Z" fill="#EB5046"/>
<path d="M396.756 265.917C396.756 263.349 394.7 261.467 391.958 261.467H265.327C262.757 261.467 260.529 263.521 260.529 265.917V344.655H396.584V265.917H396.756Z" fill="url(#paint15_linear)"/>
<path d="M265.498 359.547H392.129C394.699 359.547 396.927 357.493 396.927 355.096V344.826H260.872V355.096C260.7 357.493 262.928 359.547 265.498 359.547Z" fill="#CA3F3A"/>
<path d="M348.606 357.664H314.678V373.754H348.606V357.664Z" fill="#CA3F3A"/>
<path d="M352.717 357.664H318.789V373.754H352.717V357.664Z" fill="url(#paint16_linear)"/>
<path d="M347.063 372.213H305.081V376.835H347.063V372.213Z" fill="url(#paint17_linear)"/>
<path d="M360.771 372.213H318.789V376.835H360.771V372.213Z" fill="url(#paint18_linear)"/>
<path d="M403.782 265.917C403.782 263.349 401.726 261.467 398.984 261.467H272.524C269.954 261.467 267.727 263.521 267.727 265.917V344.655H403.782V265.917Z" fill="url(#paint19_linear)"/>
<path d="M272.524 359.547H399.155C401.725 359.547 403.953 357.493 403.953 355.096V344.826H267.898V355.096C267.726 357.493 269.783 359.547 272.524 359.547Z" fill="url(#paint20_linear)"/>
<path opacity="0.2" d="M348.091 295.872C348.091 302.718 342.608 308.196 335.754 308.196C328.899 308.196 323.416 302.718 323.416 295.872C323.416 289.025 328.899 283.547 335.754 283.547C342.608 283.547 348.091 289.025 348.091 295.872Z" fill="white"/>
<path d="M233.111 372.213H203.81V376.664H233.111V372.213Z" fill="url(#paint21_linear)"/>
<path d="M281.776 372.213H220.26V376.664H281.776V372.213Z" fill="url(#paint22_linear)"/>
<g clip-path="url(#clip0)">
<path d="M472.447 343.022H392.447V376.953H472.447V343.022Z" fill="#FCDDD4"/>
<path fill-rule="evenodd" clip-rule="evenodd" d="M432.892 334.177V334.254C433.527 332.485 434.798 329.669 436.935 325.469C441.177 317.427 445.912 311.249 445.912 311.249C445.912 311.249 443.841 318.114 439.599 326.155C435.848 333.352 433.794 336.256 432.892 336.696V337.106C433.979 335.677 436.372 333.226 440.585 329.391C447.589 323.115 454.494 318.604 454.494 318.604C454.494 318.604 450.055 324.39 443.052 330.764C438.944 334.451 436.222 336.661 434.523 337.794C436.253 336.725 438.943 335.258 442.855 333.314C451.535 328.999 459.427 326.351 459.427 326.351C459.427 326.351 453.311 330.764 444.63 335.079C438.019 338.44 434.44 339.867 432.892 340.14V340.435C434.284 339.664 437.845 338.428 444.63 336.55C454.198 333.902 462.583 332.726 462.583 332.726C462.583 332.726 455.283 335.962 445.715 338.61C442.596 339.473 440.105 340.107 438.155 340.549C440.131 340.22 442.682 339.866 445.912 339.492C456.072 338.217 464.556 338.315 464.556 338.315C464.556 338.315 456.566 340.473 446.405 341.65C438.225 342.676 434.201 342.812 432.892 342.52V342.728H431.905V342.588C431.723 342.641 431.469 342.684 431.116 342.728H428.255C426.085 342.63 422.83 342.434 418.292 341.846C408.132 340.571 400.142 338.511 400.142 338.511C400.142 338.511 408.625 338.413 418.785 339.688C421.838 340.042 424.285 340.369 426.213 340.669C424.314 340.232 421.929 339.621 418.982 338.806C409.315 336.158 402.114 332.922 402.114 332.922C402.114 332.922 410.499 334.098 420.067 336.746C427.021 338.67 430.589 339.921 431.905 340.687V340.341C430.414 340.091 426.824 338.634 420.068 335.275C411.387 330.96 405.271 326.547 405.271 326.547C405.271 326.547 413.163 329.195 421.844 333.51C425.51 335.333 428.103 336.735 429.838 337.785C428.11 336.599 425.464 334.435 421.646 330.96C414.642 324.586 410.203 318.8 410.203 318.8C410.203 318.8 417.108 323.213 424.112 329.587C427.123 332.327 429.204 334.361 430.543 335.82C429.392 334.331 427.606 331.389 425 326.449C420.758 318.408 418.687 311.543 418.687 311.543C418.687 311.543 423.52 317.721 427.663 325.763C430.053 330.402 431.36 333.377 431.905 335.101V334.179C431.375 332.962 431.017 329.445 431.017 322.429C431.017 313.406 432.398 306.052 432.398 306.052C432.398 306.052 433.779 313.406 433.779 322.429C433.779 329.441 433.422 332.958 432.892 334.177ZM431.905 337.049C431.759 337.038 431.568 336.928 431.326 336.706C431.553 336.976 431.746 337.218 431.905 337.435V337.049ZM431.905 338.91C431.665 338.847 431.353 338.711 430.962 338.493C431.34 338.744 431.653 338.967 431.905 339.164V338.91ZM432.892 338.892C433.163 338.685 433.496 338.452 433.898 338.191C433.484 338.437 433.152 338.598 432.892 338.683V338.892ZM431.905 341.57C431.588 341.591 431.139 341.569 430.543 341.497C431.174 341.658 431.62 341.808 431.905 341.947V341.57ZM432.892 341.79C433.262 341.62 433.85 341.431 434.693 341.227C433.89 341.347 433.298 341.394 432.892 341.379V341.79Z" fill="#F37753"/>
<path d="M427.071 342.728H408.625C411.486 342.532 414.938 342.434 418.588 342.434C422.139 342.434 425 342.532 427.071 342.728Z" fill="#F37753"/>
<path d="M437.626 342.728H456.072C453.212 342.532 449.759 342.336 446.109 342.434C442.46 342.532 439.698 342.63 437.626 342.728Z" fill="#F37753"/>
</g>
<path d="M305.447 181.052C305.447 170.006 314.402 161.052 325.447 161.052H438.066C449.112 161.052 458.066 170.006 458.066 181.052V207.664C458.066 218.71 449.112 227.664 438.066 227.664H305.447V181.052Z" fill="#F69477"/>
<circle opacity="0.5" cx="340.018" cy="194.78" r="5.05919" fill="white"/>
<circle opacity="0.5" cx="361.098" cy="194.78" r="5.05919" fill="white"/>
<circle opacity="0.5" cx="382.178" cy="194.78" r="5.05919" fill="white"/>
<circle opacity="0.5" cx="403.258" cy="194.78" r="5.05919" fill="white"/>
<circle opacity="0.5" cx="424.338" cy="194.78" r="5.05919" fill="white"/>
</g>
<defs>
<linearGradient id="paint0_linear" x1="188.855" y1="60.1181" x2="106.403" y2="210.965" gradientUnits="userSpaceOnUse">
<stop stop-color="#F37753"/>
<stop offset="1" stop-color="white" stop-opacity="0"/>
</linearGradient>
<linearGradient id="paint1_linear" x1="101.969" y1="26.0345" x2="149.575" y2="352.013" gradientUnits="userSpaceOnUse">
<stop stop-color="#F7A58D"/>
<stop offset="1" stop-color="#F58A6B"/>
</linearGradient>
<linearGradient id="paint2_linear" x1="250.235" y1="264.548" x2="247.181" y2="230.762" gradientUnits="userSpaceOnUse">
<stop stop-color="#FFB3B6"/>
<stop offset="1" stop-color="#FFC8C1"/>
</linearGradient>
<linearGradient id="paint3_linear" x1="222.827" y1="260.589" x2="251.561" y2="270.937" gradientUnits="userSpaceOnUse">
<stop stop-color="#FFB3B6" stop-opacity="0.31"/>
<stop offset="1" stop-color="#FFC8C1"/>
</linearGradient>
<linearGradient id="paint4_linear" x1="275.81" y1="318.46" x2="269.681" y2="255.259" gradientUnits="userSpaceOnUse">
<stop stop-color="#FFB3B6"/>
<stop offset="1" stop-color="white"/>
</linearGradient>
<linearGradient id="paint5_linear" x1="274.32" y1="251.908" x2="268.436" y2="201.279" gradientUnits="userSpaceOnUse">
<stop stop-color="#FFB3B6"/>
<stop offset="1" stop-color="#FFC8C1"/>
</linearGradient>
<linearGradient id="paint6_linear" x1="235.5" y1="253.693" x2="235.5" y2="379.748" gradientUnits="userSpaceOnUse">
<stop stop-color="#F4A984"/>
<stop offset="1" stop-color="#EE4D47"/>
</linearGradient>
<linearGradient id="paint7_linear" x1="177.156" y1="273.072" x2="177.156" y2="379.379" gradientUnits="userSpaceOnUse">
<stop stop-color="#F4A984"/>
<stop offset="1" stop-color="#EE4D47"/>
</linearGradient>
<linearGradient id="paint8_linear" x1="235.338" y1="150.853" x2="235.338" y2="218.082" gradientUnits="userSpaceOnUse">
<stop stop-color="#F4A984"/>
<stop offset="1" stop-color="#EE4D47"/>
</linearGradient>
<linearGradient id="paint9_linear" x1="201.582" y1="206.334" x2="201.582" y2="234.346" gradientUnits="userSpaceOnUse">
<stop stop-color="#F4A984"/>
<stop offset="1" stop-color="#EE4D47"/>
</linearGradient>
<linearGradient id="paint10_linear" x1="193.1" y1="208.417" x2="193.1" y2="232.55" gradientUnits="userSpaceOnUse">
<stop stop-color="#F4A984"/>
<stop offset="1" stop-color="#EE4D47"/>
</linearGradient>
<linearGradient id="paint11_linear" x1="268.736" y1="206.676" x2="268.736" y2="234.688" gradientUnits="userSpaceOnUse">
<stop stop-color="#F4A984"/>
<stop offset="1" stop-color="#EE4D47"/>
</linearGradient>
<linearGradient id="paint12_linear" x1="277.063" y1="208.759" x2="277.063" y2="232.892" gradientUnits="userSpaceOnUse">
<stop stop-color="#F4A984"/>
<stop offset="1" stop-color="#EE4D47"/>
</linearGradient>
<linearGradient id="paint13_linear" x1="221.116" y1="251.573" x2="221.116" y2="259.762" gradientUnits="userSpaceOnUse">
<stop stop-color="#F4A984"/>
<stop offset="1" stop-color="#EE4D47"/>
</linearGradient>
<linearGradient id="paint14_linear" x1="194.447" y1="290.552" x2="216.947" y2="206.552" gradientUnits="userSpaceOnUse">
<stop stop-color="#FFB3B6"/>
<stop offset="0.239165" stop-color="#FFC5C7"/>
<stop offset="1" stop-color="white"/>
</linearGradient>
<linearGradient id="paint15_linear" x1="309.552" y1="512.315" x2="309.552" y2="27.2427" gradientUnits="userSpaceOnUse">
<stop stop-color="#FFEDBA"/>
<stop offset="0.423008" stop-color="#F16D5E"/>
<stop offset="0.651925" stop-color="#EE4D47"/>
</linearGradient>
<linearGradient id="paint16_linear" x1="330.998" y1="406.182" x2="330.998" y2="312.361" gradientUnits="userSpaceOnUse">
<stop stop-color="#FFEDBA"/>
<stop offset="1" stop-color="#EE4D47"/>
</linearGradient>
<linearGradient id="paint17_linear" x1="320.189" y1="394.324" x2="320.189" y2="367.824" gradientUnits="userSpaceOnUse">
<stop stop-color="#FFEDBA"/>
<stop offset="1" stop-color="#EE4D47"/>
</linearGradient>
<linearGradient id="paint18_linear" x1="333.897" y1="386.149" x2="333.897" y2="359.201" gradientUnits="userSpaceOnUse">
<stop stop-color="#FFEDBA"/>
<stop offset="1" stop-color="#EE4D47"/>
</linearGradient>
<linearGradient id="paint19_linear" x1="316.688" y1="399.093" x2="316.688" y2="182.459" gradientUnits="userSpaceOnUse">
<stop stop-color="#FFEDBA"/>
<stop offset="1" stop-color="#EE4D47"/>
</linearGradient>
<linearGradient id="paint20_linear" x1="316.852" y1="389.215" x2="316.852" y2="303.379" gradientUnits="userSpaceOnUse">
<stop stop-color="#FFEDBA"/>
<stop offset="1" stop-color="#EE4D47"/>
</linearGradient>
<linearGradient id="paint21_linear" x1="214.354" y1="393.505" x2="214.354" y2="367.986" gradientUnits="userSpaceOnUse">
<stop stop-color="#FFEDBA"/>
<stop offset="1" stop-color="#EE4D47"/>
</linearGradient>
<linearGradient id="paint22_linear" x1="242.397" y1="372.184" x2="242.397" y2="352.769" gradientUnits="userSpaceOnUse">
<stop stop-color="#FFEDBA"/>
<stop offset="1" stop-color="#EE4D47"/>
</linearGradient>
<clipPath id="clip0">
<rect x="392.447" y="306.052" width="80" height="71" fill="white"/>
</clipPath>
</defs>
</svg>
